<svg width="24" height="24" viewBox="0 0 24 24" fill="none" xmlns="http://www.w3.org/2000/svg">
<path d="M21 15.0563C22.208 15.0563 23 14.3483 23 13.0563C23 11.7643 22 11.5563 22 11.5563" stroke="#AFB5B8" stroke-width="1.5" stroke-linecap="round" stroke-linejoin="round"/>
<path fill-rule="evenodd" clip-rule="evenodd" d="M15 8.99997H9C7.75 6.04197 5 6.99997 5 6.99997L5.951 9.85397C4.756 10.566 3.82 11.668 3.349 13H1V18H3.824C4.534 19.219 5.65 20.173 7 20.651V23H10V21H14V23H17V20.651C19.329 19.827 21 17.611 21 15C21 11.686 18.314 8.99997 15 8.99997V8.99997Z" stroke="#AFB5B8" stroke-width="1.5" stroke-linecap="round" stroke-linejoin="round"/>
<path d="M11 12H15" stroke="#AFB5B8" stroke-width="1.5" stroke-linecap="round" stroke-linejoin="round"/>
<path fill-rule="evenodd" clip-rule="evenodd" d="M11 3C11 1.895 11.895 1 13 1C14.105 1 15 1.895 15 3C15 4.105 14.105 5 13 5C11.895 5 11 4.105 11 3V3Z" stroke="#AFB5B8" stroke-width="1.5" stroke-linecap="round" stroke-linejoin="round"/>
</svg>
